<svg version="1.1" xmlns="http://www.w3.org/2000/svg" viewBox="0 0 1547 619" width="3094" height="1238">
  <!-- svg-source:excalidraw -->
  
  <defs>
    <style>
      @font-face {
        font-family: "Virgil";
        src: url("https://excalidraw.com/Virgil.woff2");
      }
      @font-face {
        font-family: "Cascadia";
        src: url("https://excalidraw.com/Cascadia.woff2");
      }
    </style>
  </defs>
  <rect x="0" y="0" width="1547" height="619" fill="#ffffff"></rect><g stroke-linecap="round" transform="translate(39 144) rotate(0 69.5 50.5)"><path d="M1.14 1.32 C37.52 0.46, 76.57 -1.69, 138.34 -1.01 M1 -0.58 C32.63 -1.94, 66.4 -0.9, 138.07 0.95 M138.93 1.73 C138.41 36.46, 137.97 71.26, 138.33 100.69 M138.32 0.74 C138.86 39.17, 137.43 79.15, 139.43 101.53 M139.82 100.69 C97.21 100.64, 52.52 101.14, 1.54 100.35 M139.86 100.32 C92.42 100.07, 46.25 101.65, -0.64 101.6 M1.25 100.82 C-0.02 62.33, 1.35 22.92, 0.74 1.62 M0.58 100.45 C-0.21 63.42, 0.73 24.88, 0.81 -0.45" stroke="#000000" stroke-width="1" fill="none"></path></g><g transform="translate(44 155.5) rotate(0 64.5 39)"><text x="64.5" y="18" font-family="Virgil, Segoe UI Emoji" font-size="20px" fill="#000000" text-anchor="middle" style="white-space: pre;" direction="ltr">Clip Model- </text><text x="64.5" y="44" font-family="Virgil, Segoe UI Emoji" font-size="20px" fill="#000000" text-anchor="middle" style="white-space: pre;" direction="ltr">Image</text><text x="64.5" y="70" font-family="Virgil, Segoe UI Emoji" font-size="20px" fill="#000000" text-anchor="middle" style="white-space: pre;" direction="ltr">Feature </text></g><g stroke-linecap="round"><g transform="translate(56 54) rotate(0 0.8462113935084972 40.53594082669355)"><path d="M0.49 -0.19 C0.76 13.7, 2.25 68.59, 2.4 82.4 M-0.71 -1.33 C-0.6 12.26, 1.64 66.82, 1.85 80.49" stroke="#000000" stroke-width="1" fill="none"></path></g><g transform="translate(56 54) rotate(0 0.8462113935084972 40.53594082669355)"><path d="M-9.55 53.87 C-4.72 62.37, -0.16 74.51, 1.2 81.17 M-9.92 52.43 C-5.95 63, -0.22 72.78, 2.44 81.44" stroke="#000000" stroke-width="1" fill="none"></path></g><g transform="translate(56 54) rotate(0 0.8462113935084972 40.53594082669355)"><path d="M10.96 53.26 C8.29 62.07, 5.34 74.43, 1.2 81.17 M10.59 51.83 C6.88 62.8, 4.92 72.8, 2.44 81.44" stroke="#000000" stroke-width="1" fill="none"></path></g></g><g transform="translate(33 34) rotate(0 26 13)"><text x="0" y="18" font-family="Virgil, Segoe UI Emoji" font-size="20px" fill="#000000" text-anchor="start" style="white-space: pre;" direction="ltr">Disc </text></g><g stroke-linecap="round"><g transform="translate(144 51) rotate(0 -2.42586668915294 45.59716870025731)"><path d="M1.01 1.09 C0.14 16.33, -5.06 75.62, -5.86 90.58 M0.07 0.61 C-0.39 15.58, -3.07 74.04, -3.77 88.76" stroke="#000000" stroke-width="1" fill="none"></path></g><g transform="translate(144 51) rotate(0 -2.42586668915294 45.59716870025731)"><path d="M-10.9 58.14 C-9.77 68.5, -7.14 75.69, -4.23 88.44 M-12.16 60.91 C-8.72 68.36, -6.87 78.32, -3.18 87.8" stroke="#000000" stroke-width="1" fill="none"></path></g><g transform="translate(144 51) rotate(0 -2.42586668915294 45.59716870025731)"><path d="M9.6 59.09 C5.72 69.39, 3.33 76.35, -4.23 88.44 M8.34 61.86 C5.24 69.14, 0.55 78.79, -3.18 87.8" stroke="#000000" stroke-width="1" fill="none"></path></g></g><g transform="translate(137 28) rotate(0 128.5 13)"><text x="0" y="18" font-family="Virgil, Segoe UI Emoji" font-size="20px" fill="#000000" text-anchor="start" style="white-space: pre;" direction="ltr">PNG/JPG - path or URL </text></g><g stroke-linecap="round"><g transform="translate(183 178) rotate(0 80.6510679550376 -2.139145756140337)"><path d="M0.34 0.66 C27.25 -0.21, 135.45 -4.07, 162.25 -4.94 M-0.95 -0.04 C25.76 -0.81, 134.01 -3.31, 161.43 -3.89" stroke="#000000" stroke-width="1" fill="none"></path></g><g transform="translate(183 178) rotate(0 80.6510679550376 -2.139145756140337)"><path d="M134.58 7.41 C142.12 1.5, 153 -1.39, 160.25 -3.27 M133.98 6.24 C138.95 5.6, 145.27 1.98, 161.28 -3.65" stroke="#000000" stroke-width="1" fill="none"></path></g><g transform="translate(183 178) rotate(0 80.6510679550376 -2.139145756140337)"><path d="M134.12 -13.11 C141.88 -11.51, 152.93 -6.89, 160.25 -3.27 M133.52 -14.27 C138.79 -10.61, 145.21 -9.93, 161.28 -3.65" stroke="#000000" stroke-width="1" fill="none"></path></g></g><g transform="translate(351 158) rotate(0 55 13)"><text x="0" y="18" font-family="Virgil, Segoe UI Emoji" font-size="20px" fill="#000000" text-anchor="start" style="white-space: pre;" direction="ltr">Annoy Tree</text></g><g stroke-linecap="round"><g transform="translate(183 234) rotate(0 72.44717844085767 -0.8181655701249895)"><path d="M0.76 0.04 C25.09 -0.21, 120.97 -1.54, 145.19 -1.68 M-0.29 -0.98 C23.95 -1.08, 119.98 -0.77, 144.34 -0.5" stroke="#000000" stroke-width="1" fill="none"></path></g><g transform="translate(183 234) rotate(0 72.44717844085767 -0.8181655701249895)"><path d="M116.16 9.89 C121.69 8.78, 129.9 4.68, 143.92 1.32 M115.64 10.44 C126.24 4.96, 138.61 0.77, 144.07 -0.3" stroke="#000000" stroke-width="1" fill="none"></path></g><g transform="translate(183 234) rotate(0 72.44717844085767 -0.8181655701249895)"><path d="M116.29 -10.63 C121.77 -6.85, 129.94 -6.06, 143.92 1.32 M115.77 -10.09 C126.27 -7.49, 138.58 -3.6, 144.07 -0.3" stroke="#000000" stroke-width="1" fill="none"></path></g></g><g transform="translate(467 159) rotate(0 70.5 13)"><text x="0" y="18" font-family="Virgil, Segoe UI Emoji" font-size="20px" fill="#000000" text-anchor="start" style="white-space: pre;" direction="ltr">(Vector, index)</text></g><g transform="translate(346 226) rotate(0 249.5 13)"><text x="0" y="18" font-family="Virgil, Segoe UI Emoji" font-size="20px" fill="#000000" text-anchor="start" style="white-space: pre;" direction="ltr">SQL Lite(index, path to the image or image itself)</text></g><g stroke-linecap="round" transform="translate(561.5 350) rotate(0 334 129.5)"><path d="M-0.53 0.19 C148.79 -0.33, 296.52 0.48, 667.46 0.54 M0.25 0.37 C265.12 -2.42, 529.61 -2.36, 667.95 -0.38 M667.85 1.28 C669.66 66.95, 669.43 132.65, 667.51 259.31 M668.54 -0.33 C666.8 92.38, 667.82 185.95, 667.79 258.34 M667.6 259.6 C464.14 256.93, 258.67 255.84, 0.49 258.41 M667.86 259.06 C429.66 258.05, 190.5 257.73, 0.11 259.14 M0.31 257.57 C0.98 205.82, 2.71 150.99, -0.32 1.48 M0.31 258.35 C-0.59 178.04, 0.49 97.46, -0.12 0.18" stroke="#000000" stroke-width="1" fill="none"></path></g><g stroke-linecap="round" transform="translate(348 151) rotate(0 134.5 17)"><path d="M0.22 1.34 C88.72 -2.8, 178.99 -1.1, 269.32 -0.99 M0.23 0.48 C104.69 -1.09, 207.22 -0.36, 268.26 0.78 M267.8 0.41 C270.32 8.43, 269.84 15.08, 267.07 35.57 M269.08 0.25 C269.8 10.04, 268.81 19.53, 269.3 34.87 M269.22 34.87 C197.47 31.86, 126.12 31.47, -1.31 32.5 M268.79 34.36 C206.16 33.94, 141.67 34.24, 0.62 34.43 M-1.16 32.12 C0.78 22.33, 1.9 12.18, 1.32 1.75 M0.05 33.56 C-0.37 22.99, -0.46 14.01, -0.08 0.92" stroke="#000000" stroke-width="1" fill="none"></path></g><g stroke-linecap="round" transform="translate(342 223) rotate(0 254 13.5)"><path d="M-0.55 -0.54 C151.27 -0.79, 300.88 -1.88, 508.27 0.26 M0.12 -0.18 C201.15 -0.46, 401.88 -0.96, 508.29 -0.27 M507.38 0.05 C508.41 8.86, 507.38 16.7, 508.79 26.75 M508.67 0.39 C507.77 5.15, 508.17 11.47, 507.85 27.99 M508.51 27.68 C402.57 25.3, 299.12 25.57, 0.54 27.61 M508.35 26.91 C356.03 25.58, 204.27 25.02, -0.29 27.25 M1.77 26.47 C0.98 15.59, 1.08 7.35, 1.23 -0.35 M0.71 26.05 C-0.66 18.42, -0.29 9.09, 0.67 -0.12" stroke="#000000" stroke-width="1" fill="none"></path></g><g stroke-linecap="round" transform="translate(10 10) rotate(0 449.5 140.5)"><path d="M0.74 0.02 C354 3.99, 708.93 4.08, 898.93 0.76 M0.27 -0.1 C286 -0.34, 572.84 -0.46, 899.19 0.11 M897.85 1.13 C899.02 111.35, 901.01 222.86, 897.72 281.5 M898.77 -0.1 C899.57 111.15, 899.79 222.36, 899.73 280.91 M899 281.43 C683.65 283.27, 467.85 284.26, 0.25 281.01 M898.91 280.66 C564.28 279.17, 230.23 279.19, -0.28 280.89 M-0.5 282.51 C-2.15 215.88, -0.29 150.85, -0.79 -0.59 M0.25 281.48 C0.5 220.97, 0.39 160.78, 0.37 -0.07" stroke="#000000" stroke-width="1" fill="none"></path></g><g transform="translate(766 19) rotate(0 66.5 13)"><text x="0" y="18" font-family="Virgil, Segoe UI Emoji" font-size="20px" fill="#000000" text-anchor="start" style="white-space: pre;" direction="ltr">Data Pipeline</text></g><g transform="translate(1013.25 324.25) rotate(0 105 13)"><text x="0" y="18" font-family="Virgil, Segoe UI Emoji" font-size="20px" fill="#000000" text-anchor="start" style="white-space: pre;" direction="ltr">Web Application Flask</text></g><g stroke-linecap="round"><g transform="translate(523.6088460214182 192) rotate(0 47.9505409647208 77.4604741221294)"><path d="M-0.64 -0.28 C15.55 25.61, 80.5 129.5, 96.54 155.2" stroke="#000000" stroke-width="1.5" fill="none" stroke-dasharray="1.5 7"></path></g><g transform="translate(523.6088460214182 192) rotate(0 47.9505409647208 77.4604741221294)"><path d="M72.44 137.6 C80.58 140.74, 84.24 147.4, 95.26 153.77" stroke="#000000" stroke-width="1.5" fill="none" stroke-dasharray="1.5 5"></path></g><g transform="translate(523.6088460214182 192) rotate(0 47.9505409647208 77.4604741221294)"><path d="M89.85 126.73 C93.65 132.47, 93 141.83, 95.26 153.77" stroke="#000000" stroke-width="1.5" fill="none" stroke-dasharray="1.5 5"></path></g></g><g stroke-linecap="round"><g transform="translate(712 247) rotate(0 -33.86486934460697 57.99186647571625)"><path d="M-0.11 1.16 C-11.46 20.21, -56.43 95.9, -67.62 114.82" stroke="#000000" stroke-width="1.5" fill="none" stroke-dasharray="1.5 7"></path></g><g transform="translate(712 247) rotate(0 -33.86486934460697 57.99186647571625)"><path d="M-60.13 84.31 C-62.45 95.02, -64.58 106.18, -65.62 115.37" stroke="#000000" stroke-width="1.5" fill="none" stroke-dasharray="1.5 5"></path></g><g transform="translate(712 247) rotate(0 -33.86486934460697 57.99186647571625)"><path d="M-42.47 94.78 C-50.86 101.9, -58.99 109.5, -65.62 115.37" stroke="#000000" stroke-width="1.5" fill="none" stroke-dasharray="1.5 5"></path></g></g><g stroke-linecap="round" transform="translate(1414 343) rotate(0 61.5 88)"><path d="M1.21 1.52 C44.99 0.98, 87.94 1.87, 124.17 -1.94 M0.43 0.82 C36.59 -0.94, 73.62 -0.03, 122.74 0.49 M124.13 -0.67 C119.92 56.03, 120.26 114.28, 124.93 177.34 M122.76 0.98 C123.19 59.81, 124.14 120.24, 123.97 175.27 M124 175.85 C74.97 174.96, 30.02 177.84, -0.72 176.92 M122.51 175.22 C87.89 177.02, 53.87 176.24, 0.73 176.92 M-0.72 175.69 C0.24 133.9, 1.04 93.69, -0.79 0.04 M0.17 176.59 C-0.42 127.71, -0.4 80.28, 0.85 -0.17" stroke="#000000" stroke-width="1" fill="none"></path></g><g transform="translate(1434 365) rotate(0 39 13)"><text x="0" y="18" font-family="Virgil, Segoe UI Emoji" font-size="20px" fill="#000000" text-anchor="start" style="white-space: pre;" direction="ltr">Browser</text></g><g stroke-linecap="round"><g transform="translate(1416 410) rotate(0 -94.90723738011843 0.4061738991457844)"><path d="M-0.3 -0.8 C-32.3 -0.59, -159.28 1.32, -191.21 1.61 M1.75 1.4 C-30.38 1.2, -159.21 -0.47, -191.56 -0.36" stroke="#000000" stroke-width="1" fill="none"></path></g><g transform="translate(1416 410) rotate(0 -94.90723738011843 0.4061738991457844)"><path d="M-164.64 -8.58 C-173.19 -6.01, -184.72 -4.69, -191.71 1.55 M-163.99 -9.95 C-170.54 -8.42, -180.24 -5.2, -191.09 0.2" stroke="#000000" stroke-width="1" fill="none"></path></g><g transform="translate(1416 410) rotate(0 -94.90723738011843 0.4061738991457844)"><path d="M-164.76 11.94 C-173.33 6.97, -184.82 0.74, -191.71 1.55 M-164.11 10.57 C-170.71 6.26, -180.38 3.65, -191.09 0.2" stroke="#000000" stroke-width="1" fill="none"></path></g></g><g stroke-linecap="round"><g transform="translate(1230.5 465.26786076612734) rotate(0 92.9359874788671 1.6212139218768016)"><path d="M-0.46 0.67 C30.44 1.37, 155.25 3.02, 186.33 3.26 M1.5 -0.02 C32.24 0.41, 155.15 0.89, 185.82 1.42" stroke="#000000" stroke-width="1" fill="none"></path></g><g transform="translate(1230.5 465.26786076612734) rotate(0 92.9359874788671 1.6212139218768016)"><path d="M158.65 12.79 C169.13 8.59, 177.92 3.67, 185.58 -0.12 M157.94 10.51 C167.65 7.48, 179.26 3.46, 185.17 0.72" stroke="#000000" stroke-width="1" fill="none"></path></g><g transform="translate(1230.5 465.26786076612734) rotate(0 92.9359874788671 1.6212139218768016)"><path d="M158.85 -7.73 C169.1 -4.21, 177.8 -1.42, 185.58 -0.12 M158.14 -10.01 C167.74 -4.99, 179.26 -0.95, 185.17 0.72" stroke="#000000" stroke-width="1" fill="none"></path></g></g><g transform="translate(1269 377) rotate(0 64 13)"><text x="0" y="18" font-family="Virgil, Segoe UI Emoji" font-size="20px" fill="#000000" text-anchor="start" style="white-space: pre;" direction="ltr">Text eg Dog</text></g><g transform="translate(1270 476) rotate(0 48.5 13)"><text x="0" y="18" font-family="Virgil, Segoe UI Emoji" font-size="20px" fill="#000000" text-anchor="start" style="white-space: pre;" direction="ltr">Good Dog</text></g><g transform="translate(1016 396.25) rotate(0 66.5 13)"><text x="0" y="18" font-family="Virgil, Segoe UI Emoji" font-size="20px" fill="#000000" text-anchor="start" style="white-space: pre;" direction="ltr">Text Vector </text></g><g stroke-linecap="round"><g transform="translate(1010 418.6899757085616) rotate(0 -45.14326855601905 -8.198182721622203)"><path d="M0.94 -0.02 C-14.17 -2.4, -75.04 -12.04, -90.31 -14.47 M-0.03 -1.07 C-15.32 -3.8, -75.95 -14.37, -91.22 -16.38" stroke="#000000" stroke-width="1" fill="none"></path></g><g transform="translate(1010 418.6899757085616) rotate(0 -45.14326855601905 -8.198182721622203)"><path d="M-61.81 -22.04 C-70.71 -20.59, -80.52 -18.09, -89.39 -17.32 M-61.13 -22.7 C-71.99 -19.98, -82.41 -18.82, -92.2 -15.87" stroke="#000000" stroke-width="1" fill="none"></path></g><g transform="translate(1010 418.6899757085616) rotate(0 -45.14326855601905 -8.198182721622203)"><path d="M-64.98 -1.76 C-72.81 -6.95, -81.59 -11.06, -89.39 -17.32 M-64.3 -2.42 C-74.03 -6.52, -83.38 -12.2, -92.2 -15.87" stroke="#000000" stroke-width="1" fill="none"></path></g></g><g transform="translate(731 385.25000000000006) rotate(0 91 13)"><text x="0" y="18" font-family="Virgil, Segoe UI Emoji" font-size="20px" fill="#000000" text-anchor="start" style="white-space: pre;" direction="ltr">Annoy_nn_(vector)</text></g><g stroke-linecap="round"><g transform="translate(809.1388888888891 406.6388888888889) rotate(0 0.715697127953149 29.005757783064638)"><path d="M-0.82 -0.43 C-0.25 9.55, 1.81 49.88, 2.25 59.71 M0.95 -1.7 C1.45 7.97, 1.21 47.85, 1.18 58.09" stroke="#000000" stroke-width="1" fill="none"></path></g><g transform="translate(809.1388888888891 406.6388888888889) rotate(0 0.715697127953149 29.005757783064638)"><path d="M-9.49 30.01 C-5.21 34.95, -5.16 40.78, 1.12 58.96 M-7.82 31.06 C-6.71 36.5, -4.54 42.21, 0.28 58.07" stroke="#000000" stroke-width="1" fill="none"></path></g><g transform="translate(809.1388888888891 406.6388888888889) rotate(0 0.715697127953149 29.005757783064638)"><path d="M10.62 30.09 C10.86 34.88, 6.87 40.68, 1.12 58.96 M12.29 31.14 C9.21 36.66, 7.21 42.34, 0.28 58.07" stroke="#000000" stroke-width="1" fill="none"></path></g></g><g transform="translate(764.1388888888891 476.3888888888889) rotate(0 115 25.5)"><text x="0" y="18.5" font-family="Virgil, Segoe UI Emoji" font-size="20px" fill="#000000" text-anchor="start" style="white-space: pre;" direction="ltr">Indexs = [0,2,15],</text><text x="0" y="44" font-family="Virgil, Segoe UI Emoji" font-size="20px" fill="#000000" text-anchor="start" style="white-space: pre;" direction="ltr">With Distance (5, 1, 10)</text></g><g stroke-linecap="round"><g transform="translate(753.4095652688006 497.7461737801475) rotate(0 -34.27493636513134 1.6678436583896996)"><path d="M-0.28 0.91 C-11.81 1.25, -57.91 1.27, -69.77 1.44 M1.77 0.34 C-9.8 0.95, -58.52 3.07, -70.32 3" stroke="#000000" stroke-width="1" fill="none"></path></g><g transform="translate(753.4095652688006 497.7461737801475) rotate(0 -34.27493636513134 1.6678436583896996)"><path d="M-40.86 -6.65 C-49.36 -6.75, -55.54 -1.46, -72.14 4.92 M-42.97 -7.67 C-51.62 -3.32, -63.17 0.87, -69.87 2.43" stroke="#000000" stroke-width="1" fill="none"></path></g><g transform="translate(753.4095652688006 497.7461737801475) rotate(0 -34.27493636513134 1.6678436583896996)"><path d="M-40.39 13.86 C-48.9 8.62, -55.2 8.76, -72.14 4.92 M-42.5 12.85 C-51.22 9.72, -62.94 6.43, -69.87 2.43" stroke="#000000" stroke-width="1" fill="none"></path></g></g><g transform="translate(581.638888888889 467.6388888888889) rotate(0 48.50000000000006 38.5)"><text x="0" y="17.666666666666668" font-family="Virgil, Segoe UI Emoji" font-size="20px" fill="#000000" text-anchor="start" style="white-space: pre;" direction="ltr">SQLLite</text><text x="0" y="43.333333333333336" font-family="Virgil, Segoe UI Emoji" font-size="20px" fill="#000000" text-anchor="start" style="white-space: pre;" direction="ltr">Slelect, </text><text x="0" y="69" font-family="Virgil, Segoe UI Emoji" font-size="20px" fill="#000000" text-anchor="start" style="white-space: pre;" direction="ltr">where Ids</text></g><g stroke-linecap="round"><g transform="translate(635.388888888889 544.138888888889) rotate(0 48.82616133712611 26.76386860518619)"><path d="M1.18 0.48 C1.03 -1.01, 1.12 -18.22, 0.13 -7.85 C-0.87 2.51, -22.95 56.28, -4.78 62.68 C13.38 69.08, 90.4 35.91, 109.13 30.54 M0.34 -0.32 C-0.04 -1.11, -0.29 -17.24, -0.75 -6.5 C-1.22 4.23, -20.82 58.29, -2.43 64.09 C15.96 69.88, 90.98 33.77, 109.57 28.27" stroke="#000000" stroke-width="1" fill="none"></path></g><g transform="translate(635.388888888889 544.138888888889) rotate(0 48.82616133712611 26.76386860518619)"><path d="M87.82 48.27 C94.97 38.47, 104.56 33.18, 110.48 26.33 M87.52 48.51 C95 41.67, 103.2 33.99, 109.53 28.68" stroke="#000000" stroke-width="1" fill="none"></path></g><g transform="translate(635.388888888889 544.138888888889) rotate(0 48.82616133712611 26.76386860518619)"><path d="M80.38 29.15 C90.57 26.66, 103.04 28.76, 110.48 26.33 M80.08 29.39 C90.22 29.09, 100.95 27.91, 109.53 28.68" stroke="#000000" stroke-width="1" fill="none"></path></g></g><g transform="translate(790.3888888888891 553.888888888889) rotate(0 82 13)"><text x="0" y="18" font-family="Virgil, Segoe UI Emoji" font-size="20px" fill="#000000" text-anchor="start" style="white-space: pre;" direction="ltr">SortBy Distance</text></g><g stroke-linecap="round"><g transform="translate(965.3888888888891 566.638888888889) rotate(0 130.9949019091016 -51.15314767437059)"><path d="M0.19 0.24 C43.89 -16.43, 219.59 -83.89, 263.16 -100.71 M-1.17 -0.68 C42.35 -17.64, 218.35 -85.54, 262.56 -102.54" stroke="#000000" stroke-width="1" fill="none"></path></g><g transform="translate(965.3888888888891 566.638888888889) rotate(0 130.9949019091016 -51.15314767437059)"><path d="M240.34 -81.73 C249.55 -91.75, 258.2 -97.29, 264.11 -103.06 M239.48 -83.37 C244.92 -86.77, 251.88 -92.74, 262.72 -102.9" stroke="#000000" stroke-width="1" fill="none"></path></g><g transform="translate(965.3888888888891 566.638888888889) rotate(0 130.9949019091016 -51.15314767437059)"><path d="M232.96 -100.88 C244.85 -103.65, 256.3 -101.93, 264.11 -103.06 M232.11 -102.52 C239.28 -101.01, 248.12 -102.11, 262.72 -102.9" stroke="#000000" stroke-width="1" fill="none"></path></g></g></svg>